solid Onshape
  facet normal 0 -1 0
    outer loop
      vertex 0 0 0.05
      vertex -0.05 0 0.05
      vertex 0 0 0
    endloop
  endfacet
  facet normal 0 -1 0
    outer loop
      vertex -0.05 0 0.05
      vertex -0.05 0 -3.46945e-18
      vertex 0 0 0
    endloop
  endfacet
  facet normal 0 1 0
    outer loop
      vertex -0.05 0.05 0.05
      vertex 0 0.05 0.05
      vertex -0.05 0.05 -3.46945e-18
    endloop
  endfacet
  facet normal 0 1 0
    outer loop
      vertex 0 0.05 0.05
      vertex 0 0.05 0
      vertex -0.05 0.05 -3.46945e-18
    endloop
  endfacet
  facet normal -1 0 0
    outer loop
      vertex -0.05 0.05 0.05
      vertex -0.05 0.05 -3.46945e-18
      vertex -0.05 0 0.05
    endloop
  endfacet
  facet normal -1 0 0
    outer loop
      vertex -0.05 0.05 -3.46945e-18
      vertex -0.05 0 -3.46945e-18
      vertex -0.05 0 0.05
    endloop
  endfacet
  facet normal 0 0 1
    outer loop
      vertex 0 0.05 0.05
      vertex -0.05 0.05 0.05
      vertex 0 0 0.05
    endloop
  endfacet
  facet normal 0 0 1
    outer loop
      vertex -0.05 0.05 0.05
      vertex -0.05 0 0.05
      vertex 0 0 0.05
    endloop
  endfacet
  facet normal 6.93889e-17 0 -1
    outer loop
      vertex -0.05 0.05 -3.46945e-18
      vertex 0 0.05 0
      vertex -0.05 0 -3.46945e-18
    endloop
  endfacet
  facet normal 6.93889e-17 0 -1
    outer loop
      vertex 0 0.05 0
      vertex 0 0 0
      vertex -0.05 0 -3.46945e-18
    endloop
  endfacet
  facet normal 1 0 0
    outer loop
      vertex 0 0.05 0
      vertex 0 0.05 0.05
      vertex 0 0 0
    endloop
  endfacet
  facet normal 1 0 0
    outer loop
      vertex 0 0.05 0.05
      vertex 0 0 0.05
      vertex 0 0 0
    endloop
  endfacet
endsolid Onshape
